<?xml version="1.0" encoding="utf-8"?>
<!-- Generator: Adobe Illustrator 27.9.6, SVG Export Plug-In . SVG Version: 9.03 Build 54986)  -->
<svg version="1.1" baseProfile="tiny" id="Layer_1" xmlns="http://www.w3.org/2000/svg" xmlns:xlink="http://www.w3.org/1999/xlink"
	 x="0px" y="0px" viewBox="0 0 2000 2000" overflow="visible" xml:space="preserve">
<g>
	<path fill="#FFFFFF" d="M1998.09,2009.74c-677.52,0-1355.04,0-2032.56,0c0-677.52,0-1355.04,0-2032.56
		c677.52,0,1355.04,0,2032.56,0C1998.09,654.71,1998.09,1332.22,1998.09,2009.74z M605.29,572.14l0.13-0.12
		c-1.32,0.83-2.58,1.72-3.26,3.19c0,0,0.14-0.13,0.14-0.13c-2.36,2.12-4.73,4.24-7.09,6.36c-2.73,1.12-4.43,3.49-6.42,5.45
		c-23.75,23.39-45.73,48.32-65.04,75.52c-7.88,11.1-16.14,21.98-22.14,34.3c-1.06,1.13-2.04,2.29-1.73,4.01l0.13-0.21
		c-2.65,1.08-3.24,3.81-4.47,5.91c-26.27,44.59-45.9,91.95-59.01,142c-9.82,37.47-15.62,75.55-17.71,114.26
		c-2.11,39.03,0.18,77.77,6.07,116.34c3.85,25.18,9.81,49.91,16.86,74.37c7.74,27.34,17.97,53.74,30.35,79.28
		c56.89,117.37,143.35,205.79,260.02,264.28c65.36,32.77,134.81,51.29,207.65,57.03c48.9,3.85,97.52,1.03,145.69-8.03
		c74.1-13.93,142.79-41.51,205.9-82.85c28.37-18.58,54.86-39.53,79.37-62.96c21.05-20.13,40.13-41.93,58.04-64.97
		c10.55-13.57,20.14-27.73,29.69-41.9c16.63-24.69,29.32-51.59,41.73-78.58c6.71-14.6,11.7-29.88,17.08-44.97
		c7.19-20.17,12.59-40.91,16.88-61.91c3.51-17.17,6.86-34.37,8.17-51.89c2.06-9.62,2.53-19.44,2.99-29.18
		c2.14-45.39,0.9-90.61-8.33-135.32c0.58-1.84-0.11-3.6-0.52-5.31c-3.61-15.21-6.6-30.51-11.42-45.49
		c-3.52-10.94-7.23-21.94-9.98-33.22c-2.98-12.24-8.27-23.87-13.36-35.43c-6-13.62-11.78-27.3-19.57-40.11
		c-4.76-7.83-8.02-16.58-12.78-24.51c-15.55-25.89-32.4-50.84-51.7-74.15c-50.58-61.09-111.16-109.62-181.74-145.75
		c-4.13-2.11-9.18-1.92-12.75-4.97c-6.19-5.29-14.1-6.87-21.08-10.42c-0.74-0.22-1.52-0.36-2.23-0.66
		c-58.08-24.8-118.71-38.92-181.68-42.7c-43.9-2.63-87.63-0.8-131.08,6.81c-82.91,14.52-158.94,45.65-228.05,93.65
		c-11.63,8.07-23.19,16.28-33.64,25.91l0.12-0.11c-2.9,2.37-6.93,3.59-7.97,7.85l0.24-0.21c-4.41,1.17-7.39,4.05-9.48,7.97l0.2-0.17
		C606.81,569.84,606.13,571.13,605.29,572.14z"/>
	<path fill="#050302" d="M1536.96,891.42c9.23,44.71,10.47,89.93,8.33,135.32c-0.46,9.74-0.93,19.57-2.99,29.18
		c-0.51,0.55-1.09,1.05-1.53,1.65c-12.5,17.08-25.1,34.08-39.22,49.89c-18.52,20.73-41.34,34.41-68.24,41.19
		c-4.53,1.14-6.74,3.5-8.15,7.86c-9.45,29.14-21.83,57.04-36.42,83.94c-33.55,61.88-81.09,110.98-138.68,150.71
		c-32.85,22.66-68.3,40.27-105.85,53.9c-42.28,15.35-85.8,24.4-130.62,26.82c-31.49,1.7-62.91,0.4-94.25-3.85
		c-53.45-7.25-104.31-22.65-152.01-47.78c-85.65-45.12-152.08-110.16-199.36-194.61c-36.94-65.98-54.79-137.04-55.66-212.54
		c-0.42-36.52,3.66-72.61,9.41-108.58c7.21-45.15,20.8-88.26,41.11-129.26c20.94-42.29,48.92-79.47,82.04-112.86
		c43.11-43.47,92.71-77.58,148.71-102.37c27.9-12.35,56.7-22.17,86.39-29.04c24.39-5.65,49.16-8.93,74.21-10.6
		c30.57-2.05,60.87-0.34,91.03,4.38c28.57,4.47,56.32,12.41,83.77,21.35c83.65,27.26,152.59,76.39,210.41,141.96
		c30.91,35.05,55.57,74.28,76.63,115.83c11.31,22.32,20.95,45.35,25.2,70.24c3.75,21.92,5.43,44.04,5.92,66.25
		c0.26,11.91-1.24,23.44-4.67,35.01c-8.6,28.99-26.28,50.03-52.27,65.08c-12.04,6.98-23.69,7.23-36.34,3.2
		c-18.64-5.94-32.88-17.85-45.38-32.34c-8.69-10.06-14.65-21.83-21.03-33.31c-10.08-18.1-18-37.16-22.38-57.46
		c-2.67-12.39-6.63-24.32-11.59-35.85c-7.46-17.35-19.32-31.58-33.56-43.89c-18.87-16.31-40.46-21.04-64.22-14.05
		c-20.72,6.1-36.96,18.5-49.55,36.27c-17.89,25.24-29.6,53.53-42,81.52c-7.52,16.97-14.78,34.05-22.28,51.02
		c-1.56,3.53-4,6.46-8.01,7.86c-2.91-4.47-3.9-9.31-5.27-13.95c-8.59-29.22-15.02-58.94-20.54-88.88
		c-5.62-30.51-12.41-60.77-19.96-90.87c-3.19-12.71-6.27-25.42-10.55-37.82c-8.71-25.27-22.91-46.92-42.93-64.6
		c-9.63-8.5-20.75-14.79-33.79-15.92c-25.63-2.21-47.3,6.45-64.22,25.83c-16.01,18.34-27.13,39.32-33.07,63.13
		c-7.57,30.32-11.37,61.3-16.81,91.98c-5.09,28.77-11.4,57.13-22.71,84.2c-3.05,7.29-6.44,14.51-7.56,23.22
		c-8.14-2.05-16.1-3.77-23.88-6.08c-24.92-7.4-50-12.4-76.21-7.93c-38.14,6.51-66.83,26.02-84.36,60.84
		c-16.38,32.54-10.22,64.95,17.21,88.9c15.7,13.71,33.59,24.09,53.88,29.48c33.05,8.77,65.85,6.92,98.08-4.15
		c18.2-6.25,34.62-15.99,49.41-28.2c16.77-13.83,25.79-32.42,31.14-53.16c7.86-30.45,13.44-61.38,20.03-92.1
		c1.02-4.75,1.27-9.87,3.28-14.17c3.62-7.76,6.23-15.75,8.3-24.01c2.88-11.5,5.71-23.02,8.94-34.43
		c3.11-10.97,7.56-21.44,14.42-30.65c7.05-9.47,12.85-9.16,18.98,0.69c0.27,0.44,0.49,0.91,0.74,1.36
		c8.02,14.27,13.68,29.46,17.06,45.43c7.69,36.32,15.14,72.7,23.78,108.81c5.66,23.63,13.51,46.48,25.71,67.66
		c6.86,11.92,14.12,23.81,25.73,31.54c25.87,17.22,53.24,19.95,81.3,5.43c21.25-11,37.44-27.47,48.34-48.68
		c12.46-24.26,22.91-49.19,28.75-76.2c2.98-13.79,8.03-27.57,14.53-40.48c1.86-3.69,3.62-7.44,6.19-10.7
		c5.25-6.67,11.46-7.39,17.01-1.25c5.72,6.33,10.3,13.66,12.67,21.91c1.36,4.72,2.7,9.41,4.64,13.89
		c18.47,42.79,44.06,81.09,74.14,116.45c18.46,21.69,42.44,34.03,70.2,39.26c17.88,3.37,35.88,3.44,53.97,1.65
		c24.92-2.46,47.58-10.73,67.59-25.8c9.45-7.12,17.74-15.61,26.38-23.7c9.89-9.27,18.65-19.24,25.84-30.59
		c12.19-19.22,20.71-40,21.98-62.89c1.28-23.2,0.04-46.42-1.94-69.59C1539.21,916.03,1537.09,903.81,1536.96,891.42z
		 M797.38,1323.58c0.5-2.76-0.48-4.04-1.06-5.45c-11.36-27.59-22.7-55.19-34.09-82.77c-4.19-10.14-4.25-9.94-15.42-9.96
		c-3.93-0.01-5.77,1.19-7.31,4.95c-9.46,23.09-19.27,46.03-28.96,69.03c-3.27,7.76-6.5,15.53-10.13,24.2
		c6.13,0,11.23-0.21,16.31,0.07c3.61,0.2,5.67-0.82,6.86-4.46c1.68-5.12,4.11-9.99,5.92-15.07c1.13-3.16,2.92-4.25,6.3-4.16
		c9.02,0.24,18.05,0.24,27.07-0.01c3.65-0.1,5.64,1.03,6.84,4.53c1.75,5.1,4.11,10,5.91,15.09c0.99,2.8,2.31,4.22,5.5,4.08
		C786.52,1323.41,791.93,1323.58,797.38,1323.58z M1133.58,1301.6c-7.18,6.07-15.34,7.97-24.09,7.59
		c-7.33-0.32-12.84-3.64-15.52-10.76c-1.89-5.03-0.92-6.44,4.4-6.63c2.06-0.07,4.13-0.01,6.2-0.01c11.36,0.01,22.72,0.03,34.08-0.01
		c2.23-0.01,5.12,0.53,5.3-2.9c0.58-11.59-0.49-22.76-9.13-31.73c-10.75-11.17-32.44-12.85-46.66-3.58
		c-14.43,9.4-19.89,24.75-15.29,45.1c2.64,11.68,10.08,19.71,21.39,23.57c14.61,4.98,28.97,4.03,42.65-3.43
		c6.84-3.73,6.87-4.06,2.58-10.22C1137.89,1306.3,1136.7,1303.62,1133.58,1301.6z M1213.73,1301.36c-2.33,1.51-3.97,2.77-5.79,3.71
		c-7.33,3.78-15.04,5.2-23.22,3.44c-6.2-1.34-9.84-5.32-11.66-11.17c-1.4-4.5-0.79-5.44,4.16-5.49c11.1-0.11,22.2,0.14,33.3-0.06
		c14.34-0.26,13.55,3.12,12.54-14.03c-0.67-11.42-5.85-20.89-16.54-26.28c-16.09-8.12-36.55-3.7-47.8,10.08
		c-10.78,13.21-10.97,36.55-0.38,49.86c1.93,2.43,4.1,4.63,6.65,6.45c13.98,10.03,40.6,9.58,54.22-0.82
		c2.46-1.88,3.53-3.5,1.29-6.28C1218.26,1307.96,1216.3,1304.94,1213.73,1301.36z M994.56,1274.3c0,3.87,0,7.74,0,11.61
		c0.01,10.83,0.16,21.67-0.05,32.5c-0.08,4.08,1.38,5.57,5.38,5.27c3.33-0.25,6.7,0.02,10.06-0.06c5.39-0.13,5.49-0.16,5.54-5.71
		c0.08-9.54-0.03-19.09,0.05-28.63c0.05-6.17,0.13-6.22,6.55-6.25c10.32-0.05,20.64-0.03,30.95-0.01c8.56,0.02,7.8,0.11,7.81-8.18
		c0-0.26,0-0.52,0-0.77c-0.06-7.24-0.06-7.28-7.08-7.31c-11.09-0.04-22.18-0.11-33.28,0.02c-3.57,0.04-5.19-1.1-5.03-4.88
		c0.22-5.15,0.26-10.33-0.01-15.47c-0.22-4.17,1.59-5.24,5.46-5.19c12.64,0.16,25.28,0.11,37.92,0.03
		c10.55-0.07,9.62,1.63,9.7-10.11c0-0.26,0.01-0.52,0-0.77c-0.22-5.01-0.22-5.06-5.39-5.06c-20.38,0.02-40.75,0.07-61.13,0.14
		c-7.37,0.02-7.4,0.06-7.42,7.83C994.54,1246.95,994.56,1260.62,994.56,1274.3z M942.14,1325.03c23.48,0.02,38.87-15.3,38.82-38.66
		c-0.05-23.28-15.56-38.7-38.94-38.71c-23.17-0.01-38.99,15.75-38.95,38.8C903.1,1309.64,918.67,1325.01,942.14,1325.03z
		 M811.27,1294.3c0,4.64-0.11,9.28,0.03,13.92c0.14,4.85-2.05,11.12,0.86,14.17c3.3,3.45,9.75,0.63,14.79,1.22
		c3.73,0.44,4.83-0.97,4.78-4.72c-0.21-14.17-0.17-28.36-0.03-42.53c0.04-3.78-1.7-8.36,1.01-11.14c2.15-2.19,6.39-0.79,9.68-0.72
		c3.21,0.07,3.76-1.49,3.94-4.23c0.71-10.79,0.79-10.78-9.93-11.24c-0.51-0.02-1.03-0.03-1.55-0.01c-2.2,0.09-3.07-0.84-3.26-3.16
		c-0.72-8.61,2.81-12.46,11.59-12.21c1.28,0.04,2.62,0,3.84,0.34c2.86,0.82,4.1,0.03,4.73-3.05c2.52-12.42,2.39-12.7-10.26-13.49
		c-0.51-0.03-1.03-0.07-1.54-0.08c-18.07-0.31-27.89,8.69-28.53,26.8c-0.16,4.46-1.98,4.93-5.59,4.93
		c-6.99,0.01-6.99,0.17-7.03,6.94c-0.01,1.03,0.09,2.07-0.02,3.09c-0.39,3.73,0.59,6.07,4.98,5.32c0.75-0.13,1.55,0.07,2.32-0.03
		c3.94-0.51,5.45,0.97,5.29,5.13C811.06,1277.8,811.27,1286.05,811.27,1294.3z M1255.63,1271.62c0-6.95,0-13.9,0-20.85
		c0-9.01-0.16-18.02,0.07-27.03c0.1-4.1-1.49-5.53-5.42-5.27c-3.07,0.21-6.18,0-9.26,0.06c-6.25,0.11-6.33,0.13-6.34,6.5
		c-0.04,19.31-0.01,38.61,0,57.92c0,11.58-0.04,23.17,0.02,34.75c0.03,5.79,0.12,5.81,6.07,5.91c3.09,0.05,6.18,0.07,9.27,0
		c5.42-0.13,5.55-0.17,5.57-5.66C1255.67,1302.51,1255.63,1287.07,1255.63,1271.62z M874.9,1253.91c-1.31-2.91-1.86-5.42-5.4-4.96
		c-3.29,0.43-6.7,0.32-10.02,0.03c-3.83-0.33-4.76,1.25-4.73,4.87c0.17,16.21,0.07,32.43,0.07,48.65c0,5.66,0.11,11.33-0.04,16.99
		c-0.08,2.86,0.7,4.23,3.84,4.13c5.38-0.18,10.77-0.05,15.96-0.05c1.49-2.87,0.87-5.48,0.89-8c0.07-12.35,0.01-24.71,0.04-37.07
		c0.03-9.02,3.04-12.15,11.77-12.56c3.55-0.16,7.96,1.73,10.43-0.63c2.67-2.55,1.89-7.28,2.62-11.05c1-5.14,0.75-5.45-4.59-6.31
		C888.18,1246.75,881.58,1249.34,874.9,1253.91z"/>
	<path fill="#D99D31" d="M1536.96,891.42c0.13,12.39,2.24,24.61,3.3,36.93c1.98,23.18,3.22,46.39,1.94,69.59
		c-1.27,22.9-9.79,43.67-21.98,62.89c-7.19,11.34-15.95,21.32-25.84,30.59c-8.64,8.09-16.92,16.58-26.38,23.7
		c-20.01,15.07-42.66,23.34-67.59,25.8c-18.09,1.79-36.08,1.72-53.97-1.65c-27.76-5.23-51.75-17.57-70.2-39.26
		c-30.09-35.36-55.68-73.66-74.14-116.45c-1.93-4.48-3.28-9.17-4.64-13.89c-2.37-8.25-6.95-15.58-12.67-21.91
		c-5.55-6.14-11.75-5.42-17.01,1.25c-2.57,3.26-4.33,7.01-6.19,10.7c-6.49,12.91-11.55,26.69-14.53,40.48
		c-5.84,27.01-16.29,51.94-28.75,76.2c-10.9,21.22-27.1,37.69-48.34,48.68c-28.06,14.52-55.43,11.79-81.3-5.43
		c-11.61-7.72-18.86-19.62-25.73-31.54c-12.2-21.18-20.05-44.02-25.71-67.66c-8.64-36.11-16.09-72.49-23.78-108.81
		c-3.38-15.97-9.04-31.16-17.06-45.43c-0.25-0.45-0.47-0.92-0.74-1.36c-6.14-9.85-11.94-10.16-18.98-0.69
		c-6.85,9.21-11.31,19.68-14.42,30.65c-3.23,11.4-6.06,22.93-8.94,34.43c-2.07,8.25-4.68,16.24-8.3,24.01
		c-2,4.3-2.26,9.42-3.28,14.17c-6.59,30.72-12.17,61.65-20.03,92.1c-5.35,20.74-14.37,39.32-31.14,53.16
		c-14.8,12.2-31.21,21.95-49.41,28.2c-32.23,11.07-65.03,12.92-98.08,4.15c-20.29-5.38-38.18-15.77-53.88-29.48
		c-27.43-23.96-33.59-56.36-17.21-88.9c17.53-34.82,46.22-54.33,84.36-60.84c26.2-4.47,51.28,0.52,76.21,7.93
		c7.78,2.31,15.73,4.02,23.88,6.08c1.13-8.71,4.52-15.93,7.56-23.22c11.31-27.07,17.61-55.44,22.71-84.2
		c5.43-30.69,9.24-61.66,16.81-91.98c5.94-23.81,17.06-44.79,33.07-63.13c16.92-19.39,38.59-28.04,64.22-25.83
		c13.04,1.12,24.16,7.42,33.79,15.92c20.01,17.67,34.22,39.33,42.93,64.6c4.28,12.4,7.36,25.11,10.55,37.82
		c7.55,30.1,14.34,60.36,19.96,90.87c5.52,29.95,11.94,59.66,20.54,88.88c1.36,4.64,2.36,9.48,5.27,13.95c4-1.4,6.45-4.34,8.01-7.86
		c7.51-16.97,14.77-34.05,22.28-51.02c12.4-27.99,24.12-56.28,42-81.52c12.59-17.77,28.84-30.17,49.55-36.27
		c23.77-6.99,45.36-2.26,64.22,14.05c14.23,12.3,26.1,26.54,33.56,43.89c4.96,11.53,8.92,23.47,11.59,35.85
		c4.38,20.3,12.3,39.36,22.38,57.46c6.39,11.47,12.35,23.24,21.03,33.31c12.51,14.49,26.74,26.4,45.38,32.34
		c12.65,4.03,24.3,3.77,36.34-3.2c25.99-15.06,43.67-36.09,52.27-65.08c3.43-11.57,4.94-23.1,4.67-35.01
		c-0.49-22.22-2.17-44.33-5.92-66.25c-4.26-24.89-13.89-47.92-25.2-70.24c-21.06-41.55-45.72-80.77-76.63-115.83
		c-57.82-65.57-126.76-114.7-210.41-141.96c-27.45-8.94-55.2-16.88-83.77-21.35c-30.15-4.72-60.46-6.42-91.03-4.38
		c-25.04,1.68-49.82,4.96-74.21,10.6c-29.69,6.87-58.49,16.69-86.39,29.04c-56,24.79-105.6,58.9-148.71,102.37
		c-33.12,33.39-61.09,70.57-82.04,112.86c-20.3,41-33.89,84.11-41.11,129.26c-5.74,35.96-9.83,72.06-9.41,108.58
		c0.88,75.5,18.72,146.55,55.66,212.54c47.28,84.45,113.72,149.49,199.36,194.61c47.71,25.13,98.56,40.53,152.01,47.78
		c31.34,4.25,62.76,5.55,94.25,3.85c44.82-2.41,88.34-11.47,130.62-26.82c37.55-13.63,73-31.24,105.85-53.9
		c57.59-39.72,105.14-88.83,138.68-150.71c14.58-26.9,26.97-54.8,36.42-83.94c1.42-4.37,3.62-6.72,8.15-7.86
		c26.9-6.78,49.73-20.47,68.24-41.19c14.12-15.8,26.72-32.81,39.22-49.89c0.44-0.6,1.02-1.11,1.53-1.65
		c-1.31,17.52-4.66,34.72-8.17,51.89c-4.29,21-9.68,41.74-16.88,61.91c-5.38,15.09-10.38,30.37-17.08,44.97
		c-12.41,26.99-25.1,53.9-41.73,78.58c-9.55,14.17-19.13,28.33-29.69,41.9c-17.91,23.03-36.99,44.84-58.04,64.97
		c-24.51,23.44-51,44.38-79.37,62.96c-63.11,41.34-131.8,68.92-205.9,82.85c-48.18,9.06-96.8,11.88-145.69,8.03
		c-72.83-5.74-142.28-24.26-207.65-57.03c-116.67-58.49-203.12-146.91-260.02-264.28c-12.38-25.54-22.61-51.94-30.35-79.28
		c0.98-2.03,0.4-3.94-0.16-5.98c-1.9-6.92-3.7-13.88-5.37-20.86c-9.52-39.75-13.71-80.11-14.51-120.95
		c-0.93-47.09,2.55-93.68,13.01-139.68c10.92-48.02,28.92-93.38,50.77-137.35c4.69-9.44,10.58-18.24,14.52-28.05
		c0,0-0.13,0.21-0.13,0.21c1.68-0.86,1.4-2.57,1.73-4.01c6-12.32,14.26-23.2,22.14-34.3c19.31-27.2,41.3-52.13,65.04-75.52
		c2-1.97,3.7-4.33,6.42-5.45c2.1-2.41,6.11-2.7,7.09-6.36c0,0-0.14,0.13-0.14,0.13c1.87-0.26,3.1-1.18,3.26-3.19l-0.13,0.12
		c1.31-0.15,2.59-0.35,3.2-1.77c0,0-0.2,0.17-0.2,0.17c3.73-1.98,6.84-4.7,9.48-7.97c0,0-0.24,0.21-0.24,0.21
		c3.06-2.21,7.24-3.28,7.97-7.85c0,0-0.12,0.11-0.12,0.11c2.45,0.87,3.81-1.01,5.38-2.21c5.73-4.38,11.23-9.08,17.14-13.21
		c33.39-23.36,67.93-44.63,105.2-61.54c31.8-14.43,64.49-25.74,98.48-33.26c51.3-11.34,103.28-16.49,155.83-15.75
		c3.35,0.05,6.7,0.09,10.03,0.38c19.86,1.7,39.52,4.82,59.13,8.36c39.09,7.05,77.54,16.44,114.64,30.91
		c3.47,1.35,6.73,3.88,10.85,3.31c6.98,3.55,14.89,5.14,21.08,10.42c3.57,3.05,8.62,2.86,12.75,4.97
		c70.58,36.13,131.16,84.66,181.74,145.75c19.3,23.31,36.15,48.26,51.7,74.15c4.76,7.93,8.02,16.68,12.78,24.51
		c7.79,12.81,13.58,26.5,19.57,40.11c5.09,11.57,10.39,23.2,13.36,35.43c2.74,11.28,6.45,22.28,9.98,33.22
		c4.82,14.98,7.81,30.29,11.42,45.49C1536.85,887.82,1537.55,889.58,1536.96,891.42z"/>
	<path fill="#050302" d="M1202.07,472.04c-4.11,0.57-7.38-1.96-10.85-3.31c-37.1-14.47-75.55-23.86-114.64-30.91
		c-19.6-3.54-39.27-6.66-59.13-8.36c-3.33-0.29-6.69-0.33-10.03-0.38c-52.55-0.75-104.53,4.4-155.83,15.75
		c-33.99,7.52-66.68,18.83-98.48,33.26c-37.28,16.91-71.81,38.18-105.2,61.54c-5.9,4.13-11.41,8.83-17.14,13.21
		c-1.57,1.2-2.93,3.08-5.38,2.21c10.45-9.62,22.02-17.83,33.64-25.91c69.11-48,145.13-79.13,228.05-93.65
		c43.46-7.61,87.18-9.45,131.08-6.81c62.96,3.78,123.6,17.9,181.68,42.7C1200.55,471.68,1201.32,471.82,1202.07,472.04z"/>
	<path fill="#050302" d="M500.01,700.52c-3.95,9.81-9.83,18.62-14.52,28.05c-21.85,43.98-39.86,89.33-50.77,137.35
		c-10.46,46.01-13.94,92.6-13.01,139.68c0.81,40.84,4.99,81.2,14.51,120.95c1.67,6.98,3.47,13.94,5.37,20.86
		c0.56,2.04,1.15,3.95,0.16,5.98c-7.05-24.46-13.01-49.19-16.86-74.37c-5.89-38.57-8.18-77.32-6.07-116.34
		c2.09-38.7,7.89-76.78,17.71-114.26c13.11-50.05,32.75-97.42,59.01-142C496.77,704.33,497.36,701.6,500.01,700.52z"/>
	<path fill="#050302" d="M617.78,562.58c-2.65,3.27-5.75,5.99-9.48,7.97C610.4,566.62,613.37,563.74,617.78,562.58z"/>
	<path fill="#050302" d="M625.51,554.94c-0.73,4.57-4.91,5.64-7.97,7.85C618.58,558.53,622.62,557.31,625.51,554.94z"/>
	<path fill="#050302" d="M602.3,575.09c-0.98,3.66-4.99,3.95-7.09,6.36C597.58,579.33,599.94,577.21,602.3,575.09z"/>
	<path fill="#050302" d="M605.42,572.02c-0.16,2.02-1.39,2.93-3.26,3.19C602.85,573.74,604.1,572.85,605.42,572.02z"/>
	<path fill="#050302" d="M608.5,570.37c-0.61,1.42-1.89,1.62-3.2,1.77C606.13,571.13,606.81,569.84,608.5,570.37z"/>
	<path fill="#050302" d="M501.61,696.72c-0.33,1.44-0.05,3.15-1.73,4.01C499.56,699.01,500.55,697.85,501.61,696.72z"/>
	<path fill="#FFFFFF" d="M797.38,1323.58c-5.45,0-10.86-0.17-16.25,0.07c-3.2,0.14-4.52-1.28-5.5-4.08
		c-1.8-5.09-4.16-9.98-5.91-15.09c-1.2-3.5-3.2-4.63-6.84-4.53c-9.02,0.25-18.05,0.24-27.07,0.01c-3.38-0.09-5.17,1-6.3,4.16
		c-1.81,5.08-4.24,9.95-5.92,15.07c-1.19,3.63-3.25,4.66-6.86,4.46c-5.07-0.28-10.18-0.07-16.31-0.07
		c3.63-8.66,6.86-16.44,10.13-24.2c9.68-23,19.49-45.94,28.96-69.03c1.54-3.76,3.39-4.96,7.31-4.95
		c11.17,0.03,11.23-0.17,15.42,9.96c11.39,27.58,22.72,55.18,34.09,82.77C796.89,1319.54,797.88,1320.82,797.38,1323.58z
		 M749.78,1254.37c-4.22,10.51-7.77,19.36-11.52,28.7c7.98,0,14.87,0,22.38,0C757.93,1273.54,753.76,1265.03,749.78,1254.37z"/>
	<path fill="#D99D31" d="M1133.58,1301.6c3.13,2.02,4.31,4.7,5.91,7c4.29,6.16,4.26,6.49-2.58,10.22
		c-13.67,7.45-28.04,8.4-42.65,3.43c-11.31-3.85-18.75-11.89-21.39-23.57c-4.61-20.35,0.86-35.7,15.29-45.1
		c14.23-9.27,35.91-7.59,46.66,3.58c8.64,8.97,9.71,20.14,9.13,31.73c-0.17,3.43-3.07,2.9-5.3,2.9
		c-11.36,0.04-22.72,0.01-34.08,0.01c-2.07,0-4.13-0.07-6.2,0.01c-5.32,0.19-6.29,1.59-4.4,6.63c2.68,7.12,8.18,10.45,15.52,10.76
		C1118.23,1309.56,1126.4,1307.67,1133.58,1301.6z M1122.17,1274.96c-0.94-7.43-4.41-10.76-11.77-11.32
		c-7.89-0.6-13.43,3.44-15.74,12.09c7.04,0,13.9,0.04,20.76-0.02C1117.67,1275.69,1120.03,1276.22,1122.17,1274.96z"/>
	<path fill="#D99D31" d="M1213.73,1301.36c2.56,3.58,4.53,6.6,6.78,9.39c2.24,2.78,1.17,4.4-1.29,6.28
		c-13.62,10.4-40.24,10.85-54.22,0.82c-2.54-1.82-4.71-4.03-6.65-6.45c-10.59-13.31-10.4-36.65,0.38-49.86
		c11.25-13.78,31.71-18.2,47.8-10.08c10.69,5.39,15.86,14.86,16.54,26.28c1.01,17.15,1.8,13.77-12.54,14.03
		c-11.1,0.2-22.2-0.05-33.3,0.06c-4.95,0.05-5.55,0.99-4.16,5.49c1.82,5.86,5.45,9.84,11.66,11.17c8.18,1.76,15.89,0.34,23.22-3.44
		C1209.76,1304.13,1211.4,1302.87,1213.73,1301.36z M1187.98,1275.66c0,0.02,0,0.04,0,0.07c3.35,0,6.71,0.12,10.06-0.03
		c3.82-0.17,4.55-1.41,3.12-4.77c-2.08-4.89-6.98-7.58-13.34-7.32c-5.91,0.24-11.96,4.22-13.45,8.91c-0.57,1.79-0.05,3.09,2.02,3.12
		C1180.25,1275.71,1184.12,1275.66,1187.98,1275.66z"/>
	<path fill="#D99D31" d="M994.56,1274.3c0-13.67-0.02-27.34,0.01-41.01c0.02-7.76,0.05-7.8,7.42-7.83
		c20.38-0.07,40.75-0.12,61.13-0.14c5.17-0.01,5.17,0.05,5.39,5.06c0.01,0.26,0,0.52,0,0.77c-0.08,11.75,0.85,10.05-9.7,10.11
		c-12.64,0.08-25.28,0.13-37.92-0.03c-3.86-0.05-5.67,1.02-5.46,5.19c0.27,5.15,0.23,10.32,0.01,15.47
		c-0.16,3.78,1.47,4.92,5.03,4.88c11.09-0.13,22.18-0.06,33.28-0.02c7.02,0.03,7.02,0.07,7.08,7.31c0,0.26,0,0.52,0,0.77
		c0,8.29,0.75,8.2-7.81,8.18c-10.32-0.02-20.64-0.04-30.95,0.01c-6.42,0.03-6.5,0.09-6.55,6.25c-0.07,9.54,0.03,19.09-0.05,28.63
		c-0.05,5.54-0.14,5.58-5.54,5.71c-3.35,0.08-6.72-0.19-10.06,0.06c-4,0.3-5.46-1.19-5.38-5.27c0.21-10.83,0.06-21.67,0.05-32.5
		C994.56,1282.04,994.56,1278.17,994.56,1274.3z"/>
	<path fill="#FFFFFF" d="M942.14,1325.03c-23.46-0.02-39.04-15.39-39.08-38.57c-0.04-23.05,15.78-38.81,38.95-38.8
		c23.39,0.01,38.89,15.42,38.94,38.71C981.01,1309.73,965.62,1325.05,942.14,1325.03z M960.21,1286.26c0.25-4.64-0.62-9.1-2.7-13.36
		c-3.19-6.55-8.67-9.3-15.61-9.27c-6.96,0.03-12.57,2.82-15.43,9.5c-3.59,8.39-3.74,17.03-0.45,25.52
		c2.85,7.35,8.35,10.76,16.18,10.71c7.73-0.06,13.14-3.72,16.12-10.94C959.93,1294.54,960.4,1290.48,960.21,1286.26z"/>
	<path fill="#FFFFFF" d="M811.27,1294.3c0-8.25-0.21-16.51,0.09-24.74c0.15-4.16-1.35-5.64-5.29-5.13c-0.76,0.1-1.56-0.1-2.32,0.03
		c-4.39,0.75-5.38-1.59-4.98-5.32c0.11-1.02,0.01-2.06,0.02-3.09c0.04-6.77,0.04-6.93,7.03-6.94c3.61,0,5.43-0.47,5.59-4.93
		c0.64-18.11,10.46-27.11,28.53-26.8c0.51,0.01,1.03,0.05,1.54,0.08c12.66,0.79,12.78,1.08,10.26,13.49
		c-0.63,3.08-1.87,3.87-4.73,3.05c-1.21-0.35-2.55-0.31-3.84-0.34c-8.77-0.25-12.31,3.6-11.59,12.21c0.2,2.32,1.06,3.25,3.26,3.16
		c0.51-0.02,1.03-0.01,1.55,0.01c10.72,0.46,10.64,0.45,9.93,11.24c-0.18,2.74-0.73,4.3-3.94,4.23c-3.29-0.07-7.54-1.47-9.68,0.72
		c-2.72,2.77-0.97,7.36-1.01,11.14c-0.14,14.18-0.18,28.36,0.03,42.53c0.06,3.75-1.05,5.16-4.78,4.72
		c-5.04-0.59-11.49,2.23-14.79-1.22c-2.91-3.05-0.72-9.32-0.86-14.17C811.17,1303.59,811.27,1298.94,811.27,1294.3z"/>
	<path fill="#D99D31" d="M1255.63,1271.62c0,15.44,0.05,30.89-0.03,46.33c-0.03,5.49-0.15,5.53-5.57,5.66
		c-3.09,0.08-6.18,0.06-9.27,0c-5.95-0.1-6.04-0.13-6.07-5.91c-0.07-11.58-0.02-23.17-0.02-34.75c0-19.31-0.03-38.61,0-57.92
		c0.01-6.37,0.09-6.39,6.34-6.5c3.09-0.05,6.19,0.15,9.26-0.06c3.92-0.27,5.52,1.17,5.42,5.27c-0.22,9-0.07,18.02-0.07,27.03
		C1255.63,1257.72,1255.63,1264.67,1255.63,1271.62z"/>
	<path fill="#FFFFFF" d="M874.9,1253.91c6.68-4.57,13.28-7.15,20.85-5.94c5.34,0.85,5.59,1.16,4.59,6.31
		c-0.73,3.77,0.05,8.5-2.62,11.05c-2.47,2.36-6.88,0.47-10.43,0.63c-8.72,0.41-11.74,3.54-11.77,12.56
		c-0.04,12.36,0.03,24.71-0.04,37.07c-0.01,2.52,0.6,5.14-0.89,8c-5.19,0-10.58-0.13-15.96,0.05c-3.14,0.1-3.92-1.27-3.84-4.13
		c0.16-5.66,0.04-11.32,0.04-16.99c0-16.22,0.09-32.43-0.07-48.65c-0.04-3.62,0.89-5.2,4.73-4.87c3.32,0.28,6.73,0.4,10.02-0.03
		C873.05,1248.49,873.59,1251,874.9,1253.91z"/>
	<path fill="#050302" d="M749.78,1254.37c3.98,10.66,8.15,19.17,10.86,28.7c-7.5,0-14.4,0-22.38,0
		C742.01,1273.73,745.56,1264.88,749.78,1254.37z"/>
	<path fill="#050302" d="M1122.17,1274.96c-2.13,1.26-4.49,0.73-6.76,0.75c-6.86,0.07-13.71,0.02-20.76,0.02
		c2.31-8.65,7.85-12.7,15.74-12.09C1117.75,1264.2,1121.22,1267.53,1122.17,1274.96z"/>
	<path fill="#050302" d="M1187.98,1275.66c-3.87,0-7.74,0.05-11.6-0.02c-2.07-0.04-2.59-1.33-2.02-3.12
		c1.49-4.68,7.54-8.66,13.45-8.91c6.36-0.26,11.27,2.43,13.34,7.32c1.43,3.36,0.7,4.6-3.12,4.77c-3.35,0.15-6.7,0.03-10.06,0.03
		C1187.98,1275.71,1187.98,1275.68,1187.98,1275.66z"/>
	<path fill="#050302" d="M960.21,1286.26c0.19,4.22-0.28,8.28-1.88,12.15c-2.98,7.21-8.39,10.88-16.12,10.94
		c-7.83,0.06-13.33-3.35-16.18-10.71c-3.29-8.49-3.13-17.13,0.45-25.52c2.85-6.68,8.47-9.47,15.43-9.5
		c6.94-0.03,12.42,2.72,15.61,9.27C959.59,1277.16,960.46,1281.62,960.21,1286.26z"/>
</g>
</svg>
