<svg xmlns="http://www.w3.org/2000/svg" viewBox="0 0 2000 2000">
  <style>
    .st1{fill:#050302;}
    .st2{fill:#D99D31;}
  </style>
  <path class="st1" d="M1556.2,1009.2c-12.5,17.1-25.1,34.1-39.2,49.9c-18.5,20.7-41.3,34.4-68.2,41.2c-4.5,1.1-6.7,3.5-8.2,7.9c-9.4,29.1-21.8,57-36.4,83.9c-33.6,61.9-81.1,111-138.7,150.7c-32.8,22.7-68.3,40.3-105.8,53.9c-42.3,15.3-85.8,24.4-130.6,26.8c-31.5,1.7-62.9,0.4-94.2-3.8c-53.5-7.2-104.3-22.7-152-47.8c-85.7-45.1-152.1-110.2-199.4-194.6c-36.9-66-54.8-137-55.7-212.5c-0.4-36.5,3.7-72.6,9.4-108.6c7.2-45.2,20.8-88.3,41.1-129.3c20.9-42.3,48.9-79.5,82-112.9c43.1-43.5,92.7-77.6,148.7-102.4c27.9-12.3,56.7-22.2,86.4-29c24.4-5.7,49.2-8.9,74.2-10.6c30.6-2,60.9-0.3,91,4.4c28.6,4.5,56.3,12.4,83.8,21.3c83.7,27.3,152.6,76.4,210.4,142c30.9,35,55.6,74.3,76.6,115.8c11.3,22.3,20.9,45.3,25.2,70.2c3.8,21.9,5.4,44,5.9,66.2c0.3,11.9-1.2,23.4-4.7,35c-8.6,29-26.3,50-52.3,65.1c-12,7-23.7,7.2-36.3,3.2c-18.6-5.9-32.9-17.8-45.4-32.3c-8.7-10.1-14.7-21.8-21-33.3c-10.1-18.1-18-37.2-22.4-57.5c-2.7-12.4-6.6-24.3-11.6-35.8c-7.5-17.3-19.3-31.6-33.6-43.9c-18.9-16.3-40.5-21-64.2-14c-20.7,6.1-37,18.5-49.6,36.3c-17.9,25.2-29.6,53.5-42,81.5c-7.5,17-14.8,34-22.3,51c-1.6,3.5-4,6.5-8,7.9c-2.9-4.5-3.9-9.3-5.3-14c-8.6-29.2-15-58.9-20.5-88.9c-5.6-30.5-12.4-60.8-20-90.9c-3.2-12.7-6.3-25.4-10.5-37.8c-8.7-25.3-22.9-46.9-42.9-64.6c-9.6-8.5-20.8-14.8-33.8-15.9c-25.6-2.2-47.3,6.5-64.2,25.8c-16,18.3-27.1,39.3-33.1,63.1c-7.6,30.3-11.4,61.3-16.8,92c-5.1,28.8-11.4,57.1-22.7,84.2c-3,7.3-6.4,14.5-7.6,23.2c-8.1-2-16.1-3.8-23.9-6.1c-24.9-7.4-50-12.4-76.2-7.9c-38.1,6.5-66.8,26-84.4,60.8c-16.4,32.5-10.2,64.9,17.2,88.9c15.7,13.7,33.6,24.1,53.9,29.5c33,8.8,65.8,6.9,98.1-4.2c18.2-6.2,34.6-16,49.4-28.2c16.8-13.8,25.8-32.4,31.1-53.2c7.9-30.4,13.4-61.4,20-92.1c1-4.8,1.3-9.9,3.3-14.2c3.6-7.8,6.2-15.8,8.3-24c2.9-11.5,5.7-23,8.9-34.4c3.1-11,7.6-21.4,14.4-30.7c7-9.5,12.8-9.2,19,0.7c0.3,0.4,0.5,0.9,0.7,1.4c8,14.3,13.7,29.5,17.1,45.4c7.7,36.3,15.1,72.7,23.8,108.8c5.7,23.6,13.5,46.5,25.7,67.7c6.9,11.9,14.1,23.8,25.7,31.5c25.9,17.2,53.2,19.9,81.3,5.4c21.2-11,37.4-27.5,48.3-48.7c12.5-24.3,22.9-49.2,28.8-76.2c3-13.8,8-27.6,14.5-40.5c1.9-3.7,3.6-7.4,6.2-10.7c5.2-6.7,11.5-7.4,17-1.2c5.7,6.3,10.3,13.7,12.7,21.9c1.4,4.7,2.7,9.4,4.6,13.9c18.5,42.8,44.1,81.1,74.1,116.4c18.5,21.7,42.4,34,70.2,39.3c17.9,3.4,35.9,3.4,54,1.7c24.9-2.5,47.6-10.7,67.6-25.8c9.4-7.1,17.7-15.6,26.4-23.7c9.9-9.3,18.7-19.2,25.8-30.6c12.2-19.2,20.7-40,22-62.9c1.3-23.2,0-46.4-1.9-69.6c-1.1-12.3-3.2-24.5-3.3-36.9"/>
  <path class="st2" d="M1551.8,843.2c4.1,25.5,6.2,51.3,6.3,77.1c0,9.8-0.4,19.6-0.4,29.4c-1.3,22.9-9.8,43.7-22,62.9c-7.2,11.3-15.9,21.3-25.8,30.6c-8.6,8.1-16.9,16.6-26.4,23.7c-20,15.1-42.7,23.3-67.6,25.8c-18.1,1.8-36.1,1.7-54-1.7c-27.8-5.2-51.8-17.6-70.2-39.3c-30.1-35.4-55.7-73.7-74.1-116.4c-1.9-4.5-3.3-9.2-4.6-13.9c-2.4-8.2-6.9-15.6-12.7-21.9c-5.6-6.1-11.8-5.4-17,1.2c-2.6,3.3-4.3,7-6.2,10.7c-6.5,12.9-11.6,26.7-14.5,40.5c-5.8,27-16.3,51.9-28.8,76.2c-10.9,21.2-27.1,37.7-48.3,48.7c-28.1,14.5-55.4,11.8-81.3-5.4c-11.6-7.7-18.9-19.6-25.7-31.5c-12.2-21.2-20-44-25.7-67.7c-8.6-36.1-16.1-72.5-23.8-108.8c-3.4-16-9-31.2-17.1-45.4c-0.2-0.5-0.5-0.9-0.7-1.4c-6.1-9.8-11.9-10.2-19-0.7c-6.8,9.2-11.3,19.7-14.4,30.7c-3.2,11.4-6.1,22.9-8.9,34.4c-2.1,8.2-4.7,16.2-8.3,24c-2,4.3-2.3,9.4-3.3,14.2c-6.6,30.7-12.2,61.6-20,92.1c-5.3,20.7-14.4,39.3-31.1,53.2c-14.8,12.2-31.2,21.9-49.4,28.2c-32.2,11.1-65,12.9-98.1,4.2c-20.3-5.4-38.2-15.8-53.9-29.5c-27.4-24-33.6-56.4-17.2-88.9c17.5-34.8,46.2-54.3,84.4-60.8c26.2-4.5,51.3,0.5,76.2,7.9c7.8,2.3,15.7,4,23.9,6.1c1.1-8.7,4.5-15.9,7.6-23.2c11.3-27.1,17.6-55.4,22.7-84.2c5.4-30.7,9.2-61.7,16.8-92c5.9-23.8,17.1-44.8,33.1-63.1c16.9-19.4,38.6-28,64.2-25.8c13,1.1,24.2,7.4,33.8,15.9c20,17.7,34.2,39.3,42.9,64.6c4.3,12.4,7.4,25.1,10.5,37.8c7.5,30.1,14.3,60.4,20,90.9c5.5,30,11.9,59.7,20.5,88.9c1.4,4.6,2.4,9.5,5.3,14c4-1.4,6.4-4.3,8-7.9c7.5-17,14.8-34,22.3-51c12.4-28,24.1-56.3,42-81.5c12.6-17.8,28.8-30.2,49.6-36.3c23.8-7,45.4-2.3,64.2,14c14.2,12.3,26.1,26.5,33.6,43.9c5,11.5,8.9,23.5,11.6,35.8c4.4,20.3,12.3,39.4,22.4,57.5c6.4,11.5,12.3,23.2,21,33.3c12.5,14.5,26.7,26.4,45.4,32.3c12.7,4,24.3,3.8,36.3-3.2c26-15.1,43.7-36.1,52.3-65.1c3.4-11.6,4.9-23.1,4.7-35c-0.5-22.2-2.2-44.3-5.9-66.2c-4.3-24.9-13.9-47.9-25.2-70.2c-21.1-41.5-45.7-80.8-76.6-115.8c-57.8-65.6-126.8-114.7-210.4-142c-27.4-8.9-55.2-16.9-83.8-21.3c-30.2-4.7-60.5-6.4-91-4.4c-25,1.7-49.8,5-74.2,10.6c-29.7,6.9-58.5,16.7-86.4,29c-56,24.8-105.6,58.9-148.7,102.4c-33.1,33.4-61.1,70.6-82,112.9c-20.3,41-33.9,84.1-41.1,129.3c-5.7,36-9.8,72.1-9.4,108.6c0.9,75.5,18.7,146.5,55.7,212.5c47.3,84.4,113.7,149.5,199.4,194.6c47.7,25.1,98.6,40.5,152,47.8c31.3,4.2,62.8,5.6,94.2,3.8c44.8-2.4,88.3-11.5,130.6-26.8c37.6-13.6,73-31.2,105.8-53.9c57.6-39.7,105.1-88.8,138.7-150.7c14.6-26.9,27-54.8,36.4-83.9c1.4-4.4,3.6-6.7,8.2-7.9c26.9-6.8,49.7-20.5,68.2-41.2c14.1-15.8,26.7-32.8,39.2-49.9c0.4-0.6,1-1.1,1.5-1.7c-1.3,17.5-4.7,34.7-8.2,51.9c-4.3,21-9.7,41.7-16.9,61.9c-5.4,15.1-10.4,30.4-17.1,45c-12.4,27-25.1,53.9-41.7,78.6c-9.6,14.2-19.1,28.3-29.7,41.9c-17.9,23-37,44.8-58,65c-24.5,23.4-51,44.4-79.4,63c-63.1,41.3-131.8,68.9-205.9,82.8c-48.2,9.1-96.8,11.9-145.7,8c-72.8-5.7-142.3-24.3-207.6-57c-93.9-47.1-173.4-118.3-228.9-207.6c-53.3-85.8-79.6-183-81.6-283.7c-0.9-47.1,2.5-93.7,13-139.7C474.8,709,530,605.9,613,530.9c4.3-3.9,8.6-7.7,13-11.4c41-35.8,87.1-64,136.5-86.9c2-0.9,4.1-1.9,6.1-2.8c31.8-14.4,64.5-25.7,98.5-33.3c80.2-17.7,162.4-20.6,243.1-4.4c73.7,14.8,144.5,44.3,206.9,86.3c43.9,29.6,82.4,65.7,116.1,106.4c19.3,23.3,36.2,48.3,51.7,74.2c4.8,7.9,8,16.7,12.8,24.5c20.7,34.1,34.5,74.5,44.5,113c-6.7,25.3-13.9,50.4-20.5,75.3c-26.2,84-53.4,166.4-87.5,244.2z"/>
  <text x="1000" y="1265" text-anchor="middle" font-size="150" font-weight="900" font-family="Arial, Helvetica, sans-serif" letter-spacing="22">
    <tspan fill="#FFFFFF">FLO</tspan>
    <tspan fill="#F2A022">LUP</tspan>
  </text>
</svg>
